<svg width="20" height="20" viewBox="0 0 24 24" fill="none" xmlns="http://www.w3.org/2000/svg">
<path d="M6.46073 22.4701L5.96073 21.6041H5.96073L6.46073 22.4701ZM5.53774 21.7761L4.54539 21.6527L5.53774 21.7761ZM4.8071 17.8939L3.93499 18.3833L3.94108 18.3939L4.8071 17.8939ZM3.70407 15.9285L4.57619 15.439L4.5701 15.4285L3.70407 15.9285ZM21.061 14.0407L21.561 14.9067L21.061 14.0407ZM20.9356 12.907L21.3432 11.9939L21.3432 11.9939L20.9356 12.907ZM17.9724 10.2929L17.1 10.7818L17.1064 10.7929L17.9724 10.2929ZM16.9252 8.42418L17.7976 7.93529L17.7912 7.92418L16.9252 8.42418ZM6.4479 5.59007L6.9479 6.45609L6.4479 5.59007ZM13.3694 22.3785L13.8694 23.2446L13.3694 22.3785ZM6.5301 21.8995C6.6845 20.6583 6.59038 18.9826 5.67313 17.3939L3.94108 18.3939C4.57912 19.499 4.66353 20.7029 4.54539 21.6527L6.5301 21.8995ZM5.67916 17.4045L4.57613 15.4391L2.83202 16.4179L3.93505 18.3833L5.67916 17.4045ZM21.3432 11.9939C20.4834 11.6101 19.4878 10.9177 18.8384 9.7929L17.1064 10.7929C18.0229 12.3804 19.4005 13.3169 20.5279 13.8202L21.3432 11.9939ZM18.8448 9.80404L17.7976 7.93533L16.0528 8.91304L17.1 10.7818L18.8448 9.80404ZM17.7912 7.92418C15.393 3.77024 10.0921 2.33136 5.9479 4.72404L6.9479 6.45609C10.1278 4.62017 14.2087 5.71905 16.0592 8.92418L17.7912 7.92418ZM21.561 14.9067C22.2189 14.5268 22.3642 13.8245 22.3038 13.3353C22.2436 12.8476 21.9529 12.2661 21.3432 11.9939L20.5279 13.8202C20.3473 13.7395 20.3222 13.6077 20.3189 13.5804C20.3153 13.5515 20.3087 13.3203 20.561 13.1746L21.561 14.9067ZM4.5701 15.4285C2.75045 12.2767 3.82115 8.26132 6.9479 6.45609L5.9479 4.72404C1.85681 7.08603 0.470608 12.3279 2.83805 16.4285L4.5701 15.4285ZM5.96073 21.6041C6.0773 21.5368 6.19935 21.5262 6.28776 21.5399C6.36731 21.5522 6.41362 21.5816 6.43419 21.5975C6.45561 21.614 6.47837 21.6381 6.49781 21.6779C6.51825 21.7197 6.54283 21.7972 6.5301 21.8995L4.54539 21.6527C4.46163 22.3261 4.82195 22.8795 5.21216 23.1807C5.60301 23.4824 6.29181 23.7223 6.96073 23.3361L5.96073 21.6041ZM20.561 13.1746L5.96073 21.6041L6.96073 23.3361L21.561 14.9067L20.561 13.1746ZM13.9336 18.1557C14.5595 19.2398 14.1665 20.7636 12.8694 21.5125L13.8694 23.2446C16.0161 22.0052 16.9037 19.3 15.6656 17.1557L13.9336 18.1557ZM12.8694 21.5125C11.5724 22.2614 10.0562 21.8398 9.43026 20.7557L7.69821 21.7557C8.93624 23.9 11.7228 24.4839 13.8694 23.2446L12.8694 21.5125ZM6.46033 2.81161C6.84693 3.48122 6.61751 4.33744 5.9479 4.72404L6.9479 6.45609C8.57409 5.51721 9.13127 3.4378 8.19238 1.81161L6.46033 2.81161ZM5.9479 4.72404C5.27829 5.11064 4.42206 4.88122 4.03546 4.21161L2.30341 5.21161C3.2423 6.8378 5.3217 7.39498 6.9479 6.45609L5.9479 4.72404ZM4.03546 4.21161C3.64886 3.542 3.87829 2.68577 4.5479 2.29917L3.5479 0.56712C1.9217 1.506 1.36453 3.58541 2.30341 5.21161L4.03546 4.21161ZM4.5479 2.29917C5.21751 1.91257 6.07373 2.142 6.46033 2.81161L8.19238 1.81161C7.2535 0.185412 5.17409 -0.371764 3.5479 0.56712L4.5479 2.29917Z" fill="white"/>
</svg>
